HIERARCHY
ROOT Hips
{
	OFFSET 0.00000 0.00000 0.00000
	CHANNELS 6 Xposition Yposition Zposition Zrotation Yrotation Xrotation 
	JOINT LHipJoint
	{
		OFFSET 0 0 0
		CHANNELS 3 Zrotation Yrotation Xrotation
		JOINT LeftHip
		{
			OFFSET 1.53139 -1.83434 0.76626
			CHANNELS 3 Zrotation Yrotation Xrotation
			JOINT LeftKnee
			{
				OFFSET 2.56112 -7.03663 0.00000
				CHANNELS 3 Zrotation Yrotation Xrotation
				JOINT LeftAnkle
				{
					OFFSET 2.59983 -7.14299 0.00000
					CHANNELS 3 Zrotation Yrotation Xrotation
					JOINT LeftToe
					{
						OFFSET 0.13742 -0.37757 2.00054
						CHANNELS 3 Zrotation Yrotation Xrotation
						End Site
						{
							OFFSET 0.00000 -0.00000 1.02897
						}
					}
				}
			}
		}
	}
	JOINT RHipJoint
	{
		OFFSET 0 0 0
		CHANNELS 3 Zrotation Yrotation Xrotation
		JOINT RightHip
		{
			OFFSET -1.40122 -1.83435 0.76627
			CHANNELS 3 Zrotation Yrotation Xrotation
			JOINT RightKnee
			{
				OFFSET -2.54052 -6.98003 0.00000
				CHANNELS 3 Zrotation Yrotation Xrotation
				JOINT RightAnkle
				{
					OFFSET -2.63179 -7.23079 0.00000
					CHANNELS 3 Zrotation Yrotation Xrotation
					JOINT RightToe
					{
						OFFSET -0.24131 -0.66299 2.03908
						CHANNELS 3 Zrotation Yrotation Xrotation
						End Site
						{
							OFFSET -0.00000 -0.00000 1.07391
						}
					}
				}
			}
		}
	}
	JOINT lowerback
	{
		OFFSET 0 0 0
		CHANNELS 3 Zrotation Yrotation Xrotation
		JOINT Chest
		{
			OFFSET 0.01174 2.10302 -0.29778
			CHANNELS 3 Zrotation Yrotation Xrotation
			JOINT Chest2
			{
				OFFSET 0.00772 2.13227 -0.01247
				CHANNELS 3 Zrotation Yrotation Xrotation
				JOINT lowerneck
				{
					OFFSET 0 0 0
					CHANNELS 3 Zrotation Yrotation Xrotation
					JOINT Neck
					{
						OFFSET -0.09219 1.60848 0.31481
						CHANNELS 3 Zrotation Yrotation Xrotation
						JOINT Head
						{
							OFFSET 0.13974 1.65456 -0.31134
							CHANNELS 3 Zrotation Yrotation Xrotation
							End Site
							{
								OFFSET 0.04742 1.69515 -0.14578
							}
						}
					}
				}
				JOINT LeftCollar
				{
					OFFSET 0 0 0
					CHANNELS 3 Zrotation Yrotation Xrotation
					JOINT LeftShoulder
					{
						OFFSET 3.24909 1.02882 -0.23993
CHANNELS 3 Zrotation Xrotation Yrotation
						JOINT LeftElbow
						{
OFFSET 0 -5.329550 -0.000000
CHANNELS 3 Zrotation Xrotation Yrotation
							JOINT LeftWrist
							{
OFFSET 0 -3.692320 -0.000000
CHANNELS 3 Zrotation Xrotation Yrotation
								JOINT lhand
								{
									OFFSET 0 0 0
CHANNELS 3 Zrotation Xrotation Yrotation
									JOINT LFingers
									{
OFFSET 0 -0.536600 -0.000000
CHANNELS 3 Zrotation Xrotation Yrotation
										End Site
										{
OFFSET 0 -0.432620 -0.000000
										}
									}
								}
								JOINT LThumb
								{
OFFSET 0 0.000000 0.000000
CHANNELS 3 Zrotation Xrotation Yrotation
									End Site
									{
OFFSET 0 -0.439220 0.439220
									}
								}
							}
						}
					}
				}
				JOINT RightCollar
				{
					OFFSET 0 0 0
					CHANNELS 3 Zrotation Yrotation Xrotation
					JOINT RightShoulder
					{
						OFFSET -3.21387 0.93002 -0.34594
CHANNELS 3 Zrotation Xrotation Yrotation
						JOINT RightElbow
						{
OFFSET 0 -5.234310 0.000000
CHANNELS 3 Zrotation Xrotation Yrotation
							JOINT RightWrist
							{
OFFSET 0 -3.553010 -0.000000
CHANNELS 3 Zrotation Xrotation Yrotation
								JOINT rhand
								{
									OFFSET 0 0 0
CHANNELS 3 Zrotation Xrotation Yrotation
									JOINT RFingers
									{
OFFSET 0 -0.772520 -0.000000
CHANNELS 3 Zrotation Xrotation Yrotation
										End Site
										{
OFFSET 0 -0.622830 -0.000000
										}
									}
								}
								JOINT RThumb
								{
OFFSET 0 0.000000 0.000000
CHANNELS 3 Zrotation Xrotation Yrotation
									End Site
									{
OFFSET 0 -0.632340 0.632340
									}
								}
							}
						}
					}
				}
			}
		}
	}
}
MOTION
Frames: 6
Frame Time: 0.008333333333333333
18.472000 17.876900 -11.650600 1.220800 -46.669600 0.022500 0.000000 0.000000 0.000000 -22.462900 -4.838400 -4.796900 1.824800 8.491200 24.216300 0.679800 -1.696800 -15.090000 0.075000 -1.766300 -4.860300 0.000000 0.000000 0.000000 20.795900 2.754900 -5.414900 -2.678100 -10.154800 29.479500 -1.155000 -2.422600 -21.306800 -0.033500 1.181900 -3.249300 -0.488900 0.279600 4.237500 0.438600 0.359700 -1.995900 0.698500 0.198700 -4.443300 -10.124100 -4.799800 -22.372700 6.655900 -5.454200 27.871000 3.344000 -2.614100 13.666400 -0.000000 0.000000 0.000000 0.292400 4.781600 -27.619700 15.341500 -24.619600 3.366900 18.527400 19.706900 -20.191900 0.000000 0.000000 0.000000 -7.125000 0.000000 0.000000 -9.987400 50.911400 1.467200 -0.000000 0.000000 0.000000 -0.783600 5.023300 16.430100 -14.922700 -24.038300 -3.194400 -17.169000 4.224700 -9.067500 0.000000 0.000000 0.000000 7.125000 0.000000 -0.000000 6.997900 20.529400 4.129900
18.464840 17.871071 -11.640669 1.233402 -46.858805 -0.054161 0.000000 0.000000 0.000000 -22.533208 -5.231497 -4.451439 1.801209 8.439148 24.056075 0.670477 -1.253236 -15.091383 0.020212 -0.917794 -2.522662 0.000000 0.000000 0.000000 20.732739 3.089984 -5.183369 -2.690807 -10.176875 29.551453 -1.209252 -1.820203 -21.504638 -0.000549 0.145364 -0.399464 -0.393342 0.333084 4.055064 0.303936 0.432030 -1.925263 0.501073 0.229319 -4.265687 -9.886586 -4.682152 -22.535655 6.598260 -5.348248 28.048728 3.303837 -2.549967 13.753656 0.000000 0.000000 0.000000 0.513448 4.186458 -27.574803 14.998731 -24.144286 3.225498 16.439276 18.999635 -20.311557 0.000000 0.000000 0.000000 -7.125000 0.000000 0.000000 -12.058920 50.690945 1.712577 0.000000 0.000000 0.000000 -0.632197 4.779375 16.487167 -14.885985 -23.987014 -3.179478 -17.009637 4.596063 -9.006957 0.000000 0.000000 0.000000 7.125000 0.000000 0.000000 7.112971 20.600973 4.187374
18.476124 17.866759 -11.628016 1.349231 -46.863078 -0.138326 0.000000 0.000000 0.000000 -22.737992 -5.487701 -4.398136 1.810094 8.458703 24.116203 0.670014 -1.012242 -15.151512 0.020315 -0.911280 -2.504689 0.000000 0.000000 0.000000 20.579750 3.150913 -5.189001 -2.701067 -10.194647 29.609413 -1.219437 -1.834224 -21.597650 0.000000 0.044960 -0.123539 -0.363677 0.433487 4.089530 0.250627 0.565451 -1.998231 0.418596 0.294216 -4.361757 -10.042566 -4.655009 -22.708094 6.465427 -5.192867 28.239495 3.309609 -2.517426 13.856331 0.000000 0.000000 0.000000 0.380816 3.721917 -27.849826 14.731141 -23.770152 3.116752 16.598559 19.112449 -21.160362 0.000000 0.000000 0.000000 -7.125000 0.000000 0.000000 -12.227946 51.567122 2.002854 0.000000 0.000000 0.000000 -0.770978 4.616461 16.373966 -14.841281 -23.924517 -3.161256 -16.784807 4.938396 -9.080426 0.000000 0.000000 0.000000 7.125000 0.000000 0.000000 7.273147 20.537418 4.293554
18.493879 17.865017 -11.616341 1.931085 -46.371368 -0.312304 0.000000 0.000000 0.000000 -23.081376 -4.820529 -4.923541 1.795027 8.425489 24.013984 0.683262 -2.175774 -15.025729 0.121759 -2.249385 -6.195413 0.000000 0.000000 0.000000 20.037711 3.145845 -5.674787 -2.780712 -10.331320 30.056345 -1.285208 -1.732138 -22.107406 -0.017590 -0.854525 2.348617 -0.740799 0.401200 4.073726 0.199649 0.497117 -2.172674 0.582285 0.271224 -4.536589 -10.234917 -4.667629 -22.243627 6.291023 -5.155741 28.523387 3.287440 -2.562719 13.877992 0.000000 0.000000 0.000000 0.779820 3.011174 -30.466105 14.052213 -22.809379 2.848322 18.539004 17.507036 -20.144193 0.000000 0.000000 0.000000 -7.125000 0.000000 0.000000 -9.959579 50.864878 1.451417 0.000000 0.000000 0.000000 -1.197923 4.632878 17.093717 -14.836259 -23.917449 -3.159200 -17.059723 4.609284 -8.944240 0.000000 0.000000 0.000000 7.125000 0.000000 0.000000 7.077928 20.663113 4.156330
18.512137 17.824454 -11.627770 2.181282 -46.280870 -0.184734 0.000000 0.000000 0.000000 -22.925419 -3.625104 -5.978435 1.810788 8.460333 24.121279 0.665991 -3.925145 -14.585742 0.150195 -2.496948 -6.881269 0.000000 0.000000 0.000000 19.889601 3.336359 -7.164702 -3.100552 -10.855956 31.795662 -1.351837 -1.650777 -22.619990 -0.028269 -1.084770 2.982162 -0.903395 0.393873 4.613264 0.120978 0.465385 -2.644979 0.589725 0.263337 -5.337123 -10.284617 -4.497090 -21.770130 6.485115 -5.116998 29.851822 3.419529 -2.567528 14.357397 0.000000 0.000000 0.000000 1.203175 3.832650 -31.393736 14.540393 -23.501862 3.040340 18.138600 16.254492 -20.547367 0.000000 0.000000 0.000000 -7.125000 0.000000 0.000000 -10.492543 51.208035 1.619739 0.000000 0.000000 0.000000 -1.185150 4.937988 17.120185 -14.988242 -24.129685 -3.221146 -16.185214 4.126390 -10.385699 0.000000 0.000000 0.000000 7.125000 0.000000 0.000000 7.683678 19.226806 4.767372
18.457398 17.816525 -11.667195 3.424490 -46.929468 -1.057344 0.000000 0.000000 0.000000 -23.713299 -3.595101 -5.519429 1.702389 8.216577 23.373877 0.645082 -3.170605 -14.425373 0.129442 -2.319335 -6.388968 0.000000 0.000000 0.000000 19.304892 5.033788 -7.481849 -3.357286 -11.252155 33.135125 -1.508498 0.636575 -23.038714 -0.058477 -1.553198 4.272532 -1.943649 0.500335 5.200170 -0.062203 0.512322 -2.714057 0.974526 0.324345 -5.755823 -9.473845 -3.916240 -21.616727 5.524107 -4.329429 30.931270 3.058800 -2.300410 14.664434 0.000000 0.000000 0.000000 1.986074 3.890263 -31.265248 14.272481 -23.122884 2.934289 17.535846 15.735472 -20.410024 0.000000 0.000000 0.000000 -7.125000 0.000000 0.000000 -11.032579 50.968827 1.640486 0.000000 0.000000 0.000000 -0.672275 4.876792 17.070625 -15.249349 -24.492294 -3.328683 -16.957847 4.061583 -8.856359 0.000000 0.000000 0.000000 7.125000 0.000000 0.000000 7.152382 20.759636 4.185142
